HIERARCHY
ROOT Hips
{
	OFFSET 0.00000 0.00000 0.00000
	CHANNELS 6 Xposition Yposition Zposition Zrotation Yrotation Xrotation 
	JOINT LHipJoint
	{
		OFFSET 0 0 0
		CHANNELS 3 Zrotation Yrotation Xrotation
		JOINT LeftHip
		{
			OFFSET 2.36090 -1.39315 1.24752
			CHANNELS 3 Zrotation Yrotation Xrotation
			JOINT LeftKnee
			{
				OFFSET 2.06810 -5.68207 0.00000
				CHANNELS 3 Zrotation Yrotation Xrotation
				JOINT LeftAnkle
				{
					OFFSET 2.46631 -6.77613 0.00000
					CHANNELS 3 Zrotation Yrotation Xrotation
					JOINT LeftToe
					{
						OFFSET 0.26031 -0.71520 1.99545
						CHANNELS 3 Zrotation Yrotation Xrotation
						End Site
						{
							OFFSET 0.00000 -0.00000 1.05957
						}
					}
				}
			}
		}
	}
	JOINT RHipJoint
	{
		OFFSET 0 0 0
		CHANNELS 3 Zrotation Yrotation Xrotation
		JOINT RightHip
		{
			OFFSET -2.25243 -1.39315 1.24752
			CHANNELS 3 Zrotation Yrotation Xrotation
			JOINT RightKnee
			{
				OFFSET -2.17343 -5.97145 0.00000
				CHANNELS 3 Zrotation Yrotation Xrotation
				JOINT RightAnkle
				{
					OFFSET -2.52372 -6.93386 0.00000
					CHANNELS 3 Zrotation Yrotation Xrotation
					JOINT RightToe
					{
						OFFSET -0.22538 -0.61923 2.11447
						CHANNELS 3 Zrotation Yrotation Xrotation
						End Site
						{
							OFFSET -0.00000 -0.00000 1.10506
						}
					}
				}
			}
		}
	}
	JOINT lowerback
	{
		OFFSET 0 0 0
		CHANNELS 3 Zrotation Yrotation Xrotation
		JOINT Chest
		{
			OFFSET 0.01594 2.13103 0.08007
			CHANNELS 3 Zrotation Yrotation Xrotation
			JOINT Chest2
			{
				OFFSET 0.01393 2.09723 0.18338
				CHANNELS 3 Zrotation Yrotation Xrotation
				JOINT lowerneck
				{
					OFFSET 0 0 0
					CHANNELS 3 Zrotation Yrotation Xrotation
					JOINT Neck
					{
						OFFSET 0.05351 1.38915 0.32494
						CHANNELS 3 Zrotation Yrotation Xrotation
						JOINT Head
						{
							OFFSET 0.00711 1.45992 -0.21666
							CHANNELS 3 Zrotation Yrotation Xrotation
							End Site
							{
								OFFSET -0.00433 1.47702 -0.11056
							}
						}
					}
				}
				JOINT LeftCollar
				{
					OFFSET 0 0 0
					CHANNELS 3 Zrotation Yrotation Xrotation
					JOINT LeftShoulder
					{
						OFFSET 2.87198 0.92249 0.11132
CHANNELS 3 Zrotation Xrotation Yrotation
						JOINT LeftElbow
						{
OFFSET 0 -5.527310 0.000000
CHANNELS 3 Zrotation Xrotation Yrotation
							JOINT LeftWrist
							{
OFFSET 0 -3.110590 0.000000
CHANNELS 3 Zrotation Xrotation Yrotation
								JOINT lhand
								{
									OFFSET 0 0 0
CHANNELS 3 Zrotation Xrotation Yrotation
									JOINT LFingers
									{
OFFSET 0 -0.419630 0.000000
CHANNELS 3 Zrotation Xrotation Yrotation
										End Site
										{
OFFSET 0 -0.338310 0.000000
										}
									}
								}
								JOINT LThumb
								{
OFFSET 0 0.000000 0.000000
CHANNELS 3 Zrotation Xrotation Yrotation
									End Site
									{
OFFSET 0 -0.343480 0.343480
									}
								}
							}
						}
					}
				}
				JOINT RightCollar
				{
					OFFSET 0 0 0
					CHANNELS 3 Zrotation Yrotation Xrotation
					JOINT RightShoulder
					{
						OFFSET -2.94710 0.68072 0.32187
CHANNELS 3 Zrotation Xrotation Yrotation
						JOINT RightElbow
						{
OFFSET 0 -5.253960 -0.000000
CHANNELS 3 Zrotation Xrotation Yrotation
							JOINT RightWrist
							{
OFFSET 0 -3.105670 0.000000
CHANNELS 3 Zrotation Xrotation Yrotation
								JOINT rhand
								{
									OFFSET 0 0 0
CHANNELS 3 Zrotation Xrotation Yrotation
									JOINT RFingers
									{
OFFSET 0 -0.498680 0.000000
CHANNELS 3 Zrotation Xrotation Yrotation
										End Site
										{
OFFSET 0 -0.402040 0.000000
										}
									}
								}
								JOINT RThumb
								{
OFFSET 0 0.000000 0.000000
CHANNELS 3 Zrotation Xrotation Yrotation
									End Site
									{
OFFSET 0 -0.408180 0.408180
									}
								}
							}
						}
					}
				}
			}
		}
	}
}
MOTION
Frames: 9
Frame Time: 0.008333333333333333
8.574400 16.034300 24.331800 -90.567200 -62.007500 104.771000 0.000000 0.000000 0.000000 4.752100 0.800600 -32.969600 2.255300 9.378700 26.987200 1.308300 -8.929700 -20.503000 5.171900 -13.574800 -41.560100 0.000000 0.000000 0.000000 39.341800 -3.219600 -138.988000 -37.750500 -9.367600 153.048000 -1.286200 -18.580600 22.545000 -0.238500 -3.143200 8.677700 -13.486000 8.925900 4.754900 4.237600 11.358100 0.063100 10.608100 6.126200 -6.100300 -0.691800 -1.059500 -35.898700 9.937600 -3.672300 14.527000 3.133300 -0.404900 10.629200 -0.000000 -0.000000 0.000000 33.627700 -2.061000 1.323900 20.711700 -31.490300 5.898600 30.507400 -23.822200 2.792800 0.000000 0.000000 0.000000 -7.125000 0.000000 0.000000 2.983100 26.736600 1.323800 -0.000000 -0.000000 0.000000 -14.462700 -6.108000 65.866700 -15.894700 -25.377600 -3.600700 -3.187900 9.003800 27.798700 0.000000 0.000000 0.000000 7.125000 0.000000 -0.000000 28.936200 55.362300 -7.838600
8.546317 16.078165 24.275219 -87.543624 -61.042064 102.870042 0.000000 0.000000 0.000000 6.472042 0.470990 -33.785273 2.148222 9.168227 26.323117 1.412846 -8.592805 -21.281635 5.915440 -14.345774 -44.641225 0.000000 0.000000 0.000000 42.415193 -3.986539 -139.440405 -37.858548 -9.154604 153.719855 -1.412331 -17.760993 23.058054 -0.183198 -2.756599 7.601818 -13.716376 8.683723 3.448595 3.949890 11.179169 -0.712908 10.588382 6.101649 -6.143582 -1.629929 -1.876978 -35.534302 10.684872 -4.516642 14.732623 3.405396 -0.746807 10.755954 0.000000 0.000000 0.000000 37.397330 -2.288093 7.882061 19.209733 -29.678520 5.134275 31.791710 -25.005095 0.170223 0.000000 0.000000 0.000000 -7.125000 0.000000 0.000000 4.109908 29.767460 1.530267 0.000000 0.000000 0.000000 -13.617717 -4.581094 64.919429 -16.022459 -25.551095 -3.655637 -3.530710 7.896853 24.517075 0.000000 0.000000 0.000000 7.125000 0.000000 0.000000 26.424721 52.530276 -5.191883
8.536967 16.128096 24.220572 -86.472014 -60.347012 102.313038 0.000000 0.000000 0.000000 7.819036 -0.081185 -33.179479 1.932623 8.724149 24.936284 1.475331 -7.371662 -21.733315 6.309742 -14.721910 -46.212369 0.000000 0.000000 0.000000 45.077643 -5.503564 -138.767869 -37.929690 -9.010953 154.170371 -1.495559 -16.524574 23.210008 -0.220818 -3.023862 8.345243 -14.553391 8.690053 2.554764 3.772526 11.265845 -1.183065 10.927567 6.218515 -6.312941 -2.192466 -2.386849 -35.441020 11.100083 -5.088819 15.269806 3.555480 -0.967013 11.018770 0.000000 0.000000 0.000000 40.238698 -1.249827 12.639935 19.515554 -30.054244 5.286611 34.761260 -25.372844 -1.184870 0.000000 0.000000 0.000000 -7.125000 0.000000 0.000000 6.541590 31.380957 2.191343 0.000000 0.000000 0.000000 -13.096835 -3.703879 65.264578 -15.845501 -25.310668 -3.579601 -2.211905 7.314067 20.662276 0.000000 0.000000 0.000000 7.125000 0.000000 0.000000 25.495912 48.864071 -2.584037
8.526501 16.169395 24.147909 -85.227233 -60.259968 101.661618 0.000000 0.000000 0.000000 8.525261 -1.004631 -32.463429 1.677628 8.159565 23.199699 1.501599 -5.686605 -22.011473 6.692108 -15.067013 -47.700039 0.000000 0.000000 0.000000 46.088583 -5.960171 -138.725528 -38.057037 -8.746227 154.995315 -1.515510 -17.932069 23.751367 -0.177254 -2.711878 7.477527 -15.898481 8.662952 1.625689 3.341461 11.296096 -1.482720 11.293093 6.291994 -6.308805 -2.697206 -2.719363 -34.943784 11.788577 -5.470850 15.232029 3.818125 -1.096534 11.005638 0.000000 0.000000 0.000000 42.607573 -0.421584 15.243143 20.334203 -31.042775 5.702774 36.704730 -26.589064 -0.153950 0.000000 0.000000 0.000000 -7.125000 0.000000 0.000000 7.989945 30.121500 2.926830 0.000000 0.000000 0.000000 -12.418505 -2.834863 65.584086 -16.170843 -25.751773 -3.719875 -1.889527 6.218731 19.223275 0.000000 0.000000 0.000000 7.125000 0.000000 0.000000 25.079503 47.519605 -1.659209
8.527064 16.208594 24.078078 -83.537389 -59.967776 100.303902 0.000000 0.000000 0.000000 9.384855 -2.366639 -31.774214 1.499485 7.734745 21.911235 1.504239 -3.940216 -22.242029 6.916814 -15.261384 -48.558960 0.000000 0.000000 0.000000 46.975488 -6.250748 -138.190810 -38.121334 -8.608699 155.421337 -1.443215 -18.055819 23.345554 -0.201994 -2.893826 7.983286 -16.429446 8.641960 1.262608 3.053805 11.290364 -1.622552 11.306349 6.306848 -6.301881 -2.884042 -2.852874 -34.867598 11.642392 -5.570766 15.752731 3.786184 -1.153217 11.195097 0.000000 0.000000 0.000000 43.606004 0.337702 16.236029 21.600605 -32.522582 6.369813 36.555810 -28.202760 -0.376715 0.000000 0.000000 0.000000 -7.125000 0.000000 0.000000 7.894728 30.397253 2.838974 0.000000 0.000000 0.000000 -11.962181 -2.298495 65.888833 -16.537003 -26.243326 -3.880387 -1.984823 6.197266 18.048651 0.000000 0.000000 0.000000 7.125000 0.000000 0.000000 24.455399 46.466777 -0.940772
8.545281 16.249826 24.020941 -81.654263 -59.825838 98.786646 0.000000 0.000000 0.000000 10.473791 -6.834678 -30.698136 1.405557 7.499051 21.202554 1.266923 -1.251086 -20.907159 6.469305 -14.867438 -46.836054 0.000000 0.000000 0.000000 46.577802 -3.675127 -138.192758 -38.073414 -8.711386 155.103477 -1.211455 -19.834968 22.553186 -0.131791 -2.339372 6.444597 -16.370977 8.444659 0.975774 3.011009 11.069576 -1.695803 11.311014 6.188047 -6.125760 -2.613293 -2.586689 -34.583434 10.649269 -5.124414 16.423626 3.463221 -1.046793 11.309132 0.000000 0.000000 0.000000 43.431360 0.820240 16.487748 21.595400 -32.516644 6.367011 34.556859 -28.623903 -1.327279 0.000000 0.000000 0.000000 -7.125000 0.000000 0.000000 6.388904 31.551566 2.112928 0.000000 0.000000 0.000000 -11.743616 -2.695746 65.928414 -16.469416 -26.152933 -3.850522 -2.246788 6.315667 17.114682 0.000000 0.000000 0.000000 7.125000 0.000000 0.000000 23.819571 45.647958 -0.404149
8.542504 16.250406 24.011196 -80.588351 -60.099359 97.439756 0.000000 0.000000 0.000000 11.739040 -16.468696 -28.422335 1.548121 7.853607 22.270218 0.732237 2.208136 -17.109693 2.007332 -8.881058 -25.424013 0.000000 0.000000 0.000000 44.751411 0.811313 -138.554555 -38.031808 -8.799483 154.829953 -0.691314 -22.150987 20.359107 -0.080606 -1.831470 5.040093 -15.463853 8.262217 0.683573 3.193300 10.903099 -1.669097 11.102270 6.053313 -5.731687 -2.760503 -2.517397 -33.621737 10.182445 -4.881737 17.038006 3.360193 -1.013702 11.348284 0.000000 0.000000 0.000000 43.173115 0.380988 17.043060 19.004846 -29.424644 5.033220 32.634172 -30.114549 -1.186840 0.000000 0.000000 0.000000 -7.125000 0.000000 0.000000 4.844805 31.366969 1.619982 0.000000 0.000000 0.000000 -11.549313 -3.358993 65.772588 -16.264941 -25.878655 -3.760918 -1.662003 6.800068 16.934855 0.000000 0.000000 0.000000 7.125000 0.000000 0.000000 24.253217 45.412896 -0.262894
8.514477 16.196105 24.049273 -82.802052 -60.530881 98.015303 0.000000 0.000000 0.000000 11.147356 -21.679683 -26.137620 1.886005 8.624297 24.627142 0.225674 5.437751 -12.607926 0.159108 2.542191 7.008011 0.000000 0.000000 0.000000 43.740178 3.589183 -137.191079 -38.003567 -8.858748 154.645589 -0.698469 -22.220926 20.441373 -0.066768 -1.667069 4.586554 -13.923360 8.370447 0.530356 3.671999 11.122423 -1.708619 10.773468 6.120516 -5.548642 -3.226384 -2.517710 -32.034380 10.176395 -4.773857 18.172566 3.466960 -1.007848 11.516620 0.000000 0.000000 0.000000 43.685796 0.217605 20.513935 15.508590 -24.849399 3.437172 31.106161 -26.127078 -0.685879 0.000000 0.000000 0.000000 -7.125000 0.000000 0.000000 3.606129 30.769742 1.255756 0.000000 0.000000 0.000000 -11.662316 -3.437474 66.346704 -16.048157 -25.585911 -3.666741 -0.512846 7.070513 17.212068 0.000000 0.000000 0.000000 7.125000 0.000000 0.000000 25.370728 45.524629 -0.351466
8.460523 16.119188 24.060800 -85.966914 -62.163645 99.249749 0.000000 0.000000 0.000000 7.878167 -18.843466 -24.768868 2.023260 8.914386 25.527856 0.244873 3.894636 -11.613465 0.436542 4.239610 11.751722 0.000000 0.000000 0.000000 42.733411 3.732037 -136.246287 -38.088614 -8.678880 155.204082 -0.741005 -22.452384 20.831418 -0.118107 -2.215429 6.101371 -14.053484 8.266306 0.463235 3.840066 10.991330 -1.811491 11.053827 6.080821 -5.648215 -3.018526 -2.157904 -30.769986 10.101081 -4.489647 19.493127 3.479966 -0.875816 11.775088 0.000000 0.000000 0.000000 45.274942 1.083602 25.781848 14.253446 -23.095843 2.926832 31.431874 -22.514585 -0.710036 0.000000 0.000000 0.000000 -7.125000 0.000000 0.000000 3.865614 30.799007 1.343786 0.000000 0.000000 0.000000 -11.624872 -2.971370 67.317216 -15.916454 -25.407217 -3.610028 0.373700 7.977047 16.706947 0.000000 0.000000 0.000000 7.125000 0.000000 0.000000 25.914950 44.962578 0.025754
